# xmcd
#
# Track frame offsets:
#	150
#	15637
#	33482
#	48770
#	62372
#	80290
#	91330
#	102947
#	117740
#	134962
#	148000
#	158527
#	178472
#	194027
#	214815
#	231215
#
# Disc length: 3300 seconds
#
# Revision: 3
# Processed by: cddbd v1.5.2PL0 Copyright (c) Steve Scherf et al.
# Submitted via: audiograbber 1.83.01
#
DISCID=e70ce210
DTITLE=Brand, Adam - Adam Brand
DYEAR=1999
DGENRE=Country
TTITLE0=Uncle Pete
TTITLE1=Never live without you
TTITLE2=Grandpa's piano
TTITLE3=My mind's made up
TTITLE4=Come from the heart
TTITLE5=Feelin' single, seein' double
TTITLE6=Losing streak
TTITLE7=Last man standing
TTITLE8=Size two boots
TTITLE9=Dirt track cowboys
TTITLE10=My mama told me (not to play the guitar)
TTITLE11=Here and there
TTITLE12=King of the road
TTITLE13=Words cannot say
TTITLE14=Love away the night (Duet with Melinda Schneider)
TTITLE15=Gospel medley
EXTD=
EXTT0=
EXTT1=
EXTT2=
EXTT3=
EXTT4=
EXTT5=
EXTT6=
EXTT7=
EXTT8=
EXTT9=
EXTT10=
EXTT11=
EXTT12=
EXTT13=
EXTT14=
EXTT15=
PLAYORDER=
